<svg xmlns="http://www.w3.org/2000/svg" viewBox="0 0 520 360" fill="none">
  <defs>
    <linearGradient id="bodyTop" x1="141" y1="166" x2="357" y2="84" gradientUnits="userSpaceOnUse">
      <stop stop-color="#2F2A27"/>
      <stop offset=".52" stop-color="#0F0D0C"/>
      <stop offset="1" stop-color="#2A2521"/>
    </linearGradient>
    <linearGradient id="bodySide" x1="117" y1="174" x2="389" y2="281" gradientUnits="userSpaceOnUse">
      <stop stop-color="#141210"/>
      <stop offset=".6" stop-color="#050505"/>
      <stop offset="1" stop-color="#26211D"/>
    </linearGradient>
    <linearGradient id="bodyFront" x1="124" y1="195" x2="180" y2="276" gradientUnits="userSpaceOnUse">
      <stop stop-color="#37312C"/>
      <stop offset="1" stop-color="#070707"/>
    </linearGradient>
    <linearGradient id="lidTop" x1="169" y1="95" x2="370" y2="47" gradientUnits="userSpaceOnUse">
      <stop stop-color="#201C19"/>
      <stop offset=".5" stop-color="#060606"/>
      <stop offset="1" stop-color="#2B2622"/>
    </linearGradient>
    <linearGradient id="lidSide" x1="341" y1="74" x2="405" y2="119" gradientUnits="userSpaceOnUse">
      <stop stop-color="#322C27"/>
      <stop offset="1" stop-color="#090909"/>
    </linearGradient>
    <linearGradient id="keysWhite" x1="145" y1="210" x2="286" y2="246" gradientUnits="userSpaceOnUse">
      <stop stop-color="#FFFDF9"/>
      <stop offset="1" stop-color="#DDD5CA"/>
    </linearGradient>
    <linearGradient id="gold" x1="236" y1="159" x2="281" y2="201" gradientUnits="userSpaceOnUse">
      <stop stop-color="#D5BB86"/>
      <stop offset="1" stop-color="#8E6A2A"/>
    </linearGradient>
    <filter id="shadow" x="48" y="33" width="413" height="293" filterUnits="userSpaceOnUse" color-interpolation-filters="sRGB">
      <feDropShadow dx="0" dy="18" stdDeviation="16" flood-color="#000" flood-opacity=".18"/>
    </filter>
  </defs>

  <g filter="url(#shadow)">
    <ellipse cx="251" cy="291" rx="127" ry="20" fill="#000" opacity=".12"/>

    <path d="M159 234c13-24 38-46 77-64 61-29 114-30 151-17 22 8 34 22 34 41 0 24-20 42-57 54-64 20-126 19-184 7-23-5-33-12-35-21-1-3 0-6 14-8Z" fill="url(#bodySide)"/>
    <path d="M150 198c31-50 87-99 154-120 47-15 77-8 96 8 14 13 10 30-12 48-30 25-64 44-106 57-48 15-92 22-132 19Z" fill="url(#bodyTop)"/>
    <path d="M128 210c16-2 28 2 34 12 8 11 7 26-2 46-8 18-20 30-32 38-7 4-13 4-17 0-11-12-9-31 5-57 4-7 8-14 12-20Z" fill="url(#bodyFront)"/>

    <path d="M167 177c25-53 83-113 165-143 34-13 62-13 88-5-8 18-18 36-32 53-9 10-18 19-28 28 26 13 37 28 35 45-4 24-31 48-78 71-58 29-113 44-168 46 9-21 15-42 18-62Z" fill="url(#lidTop)"/>
    <path d="M338 76c27 8 50 18 68 32-5 17-16 31-34 43-18-11-32-24-42-39l8-10Z" fill="url(#lidSide)"/>
    <path d="M173 176c38-7 76-20 113-40 28-15 55-35 82-60" stroke="#FFF" stroke-width="4.5" stroke-linecap="round" opacity=".88"/>
    <path d="M216 114c13 28 29 54 47 80 18 28 41 60 69 96" stroke="#FFF" stroke-width="5" stroke-linecap="round" opacity=".92"/>
    <path d="M276 164c-18 14-38 24-59 29 21 1 43 5 66 12 31 10 58 13 81 8 12-2 19-8 22-17 3-10 0-18-9-24-14-8-34-13-61-14-13-.5-26 1-40 6Z" fill="#0A0A0A"/>
    <path d="M226 160c17 7 32 17 46 31" stroke="url(#gold)" stroke-width="6" stroke-linecap="round"/>

    <path d="M134 208c3-6 9-9 18-9h166c7 0 12 2 15 7 2 4 2 9 0 15-5 12-17 22-36 31-24 10-57 16-100 18-38 2-69-1-95-8-17-4-26-10-27-18-1-10 0-19 2-36 13 11 24 16 33 15 8-.1 16-6 24-15Z" fill="url(#keysWhite)"/>
    <path d="M133 208c3-6 9-9 18-9h166c7 0 12 2 15 7 2 4 2 9 0 15-5 12-17 22-36 31-24 10-57 16-100 18-38 2-69-1-95-8-17-4-26-10-27-18-1-10 0-19 2-36 13 11 24 16 33 15 8-.1 16-6 24-15Z" stroke="#070707" stroke-width="7"/>

    <path d="M147 217c8 7 18 11 30 13M168 222c-5 8-7 16-7 23M183 221c8 7 18 11 30 13M203 225c-4 9-6 16-6 23M219 223c8 7 18 11 30 12M239 226c-4 8-5 16-4 22M254 221c8 7 18 11 30 12M274 224c-3 8-3 15-1 21M288 216c8 7 16 10 24 11" stroke="#070707" stroke-width="4.5" stroke-linecap="round"/>
    <path d="M164 214c6 4 11 6 17 7M199 212c6 4 11 6 17 7M236 208c6 4 11 6 17 7M273 204c6 4 11 6 17 7" stroke="#070707" stroke-width="9" stroke-linecap="round"/>

    <path d="M116 231c-6 11-10 24-10 40" stroke="#090909" stroke-width="9" stroke-linecap="round"/>
    <path d="M111 271c-8 7-12 15-12 26" stroke="#090909" stroke-width="8" stroke-linecap="round"/>
    <path d="M214 254c-3 21-3 40 1 57" stroke="#090909" stroke-width="10" stroke-linecap="round"/>
    <path d="M210 312c-8 5-12 12-13 21" stroke="#090909" stroke-width="8" stroke-linecap="round"/>
    <path d="M227 312c9 5 14 12 16 21" stroke="#090909" stroke-width="8" stroke-linecap="round"/>
    <path d="M324 243c2 16 6 30 12 45" stroke="#090909" stroke-width="9" stroke-linecap="round"/>
    <path d="M338 288c-2 10 0 18 5 26" stroke="#090909" stroke-width="8" stroke-linecap="round"/>
    <path d="M343 313c8 2 13 8 14 16" stroke="#090909" stroke-width="8" stroke-linecap="round"/>

    <path d="M104 268c5 8 5 18 0 29" stroke="#090909" stroke-width="7" stroke-linecap="round"/>
    <path d="M100 297c6 2 10 7 10 14" stroke="#090909" stroke-width="7" stroke-linecap="round"/>
    <path d="M342 286c4 7 5 16 1 26" stroke="#090909" stroke-width="7" stroke-linecap="round"/>
    <path d="M215 171c7 3 14 5 22 5" stroke="#FFF" stroke-width="3.5" stroke-linecap="round" opacity=".8"/>
    <path d="M146 195c17 4 33 3 47-2" stroke="#FFF" stroke-width="3" stroke-linecap="round" opacity=".75"/>
    <path d="M300 214c22 4 42 4 59-1" stroke="#FFF" stroke-width="3" stroke-linecap="round" opacity=".72"/>
  </g>
</svg>
